<?xml version="1.0" encoding="utf-8"?>
<!DOCTYPE svg PUBLIC "-//W3C//DTD SVG 1.1//EN" "http://www.w3.org/Graphics/SVG/1.1/DTD/svg11.dtd">
<svg version="1.1" xmlns="http://www.w3.org/2000/svg" xmlns:xlink="http://www.w3.org/1999/xlink" x="0px" y="0px"
	 width="118px" height="44px" viewBox="0 0 118 44" enable-background="new 0 0 118 44" xml:space="preserve">
<path fill-rule="evenodd" clip-rule="evenodd" fill="#FFFFFF" d="M106.792,18.136c-0.226,0-0.431,0.044-0.502,0.401
	c0,0-0.64,1.496-1.766,2.069c-0.514,0.262-0.73,0.401-1.896,0.365h-5.876c-3.179-0.225-3.506-3.549-3.506-3.549
	c0-0.406-0.043-0.943-0.043-1.174v-3.772c0.087-3.399,2.725-4.178,2.725-4.178c0.382-0.121,1.019-0.121,1.247-0.121h5.877
	c2.667,0.088,3.37,2.996,3.37,2.996c0.1,0.207,0.267,0.367,0.495,0.367h10.673c0.223,0,0.404-0.183,0.41-0.405v-0.01V9.984
	c-0.157-7.901-7.34-9.815-8.829-9.777c-0.382,0.004-0.91-0.03-1.154-0.033h-0.012h-0.011h-0.011H91.385
	c-5.054,0.021-7.921,3.75-8.939,6.307c-0.441,1.121-0.58,2.09-0.596,2.493c-0.021,0.462-0.06,1.201-0.06,1.43v8.757
	c0.461,8.363,7.714,9.764,8.805,9.804c0.366,0.01,0.978,0.033,1.207,0.033h16.598c7.582-0.397,9.538-7.046,9.576-9.169
	c0.009-0.587,0.023-0.832,0.024-1.051v-0.032v-0.188v-0.011c-0.006-0.227-0.188-0.409-0.41-0.409H106.792L106.792,18.136z"/>
<path fill-rule="evenodd" clip-rule="evenodd" fill="#FFFFFF" d="M42.003,0.419c0.117-0.199,0.024-0.356-0.204-0.356H0.486
	c-0.229,0-0.414,0.185-0.414,0.409V8.42c0,0.229,0.185,0.414,0.414,0.414h10.131c0.227,0,0.412,0.187,0.412,0.414v18.406
	c0,0.229,0.186,0.414,0.414,0.414H27.39c0.229,0,0.414-0.185,0.414-0.414V9.248c0-0.227,0.182-0.414,0.411-0.414h8.362
	c0.226,0,0.508-0.162,0.624-0.357L42.003,0.419L42.003,0.419z"/>
<path fill-rule="evenodd" clip-rule="evenodd" fill="#FFFFFF" d="M48.669,0.063c-0.229,0-0.54,0.135-0.69,0.306
	c0,0-7.324,7.282-7.306,17.409c0.008,6.253,2.565,9.962,2.565,9.962c0.142,0.176,0.437,0.328,0.666,0.328h10.45
	c0.226,0,0.293-0.142,0.149-0.316c0,0-3.369-4.295-3.308-10.134c0.049-5.237,3.14-8.524,3.14-8.524
	c0.135-0.182,0.434-0.331,0.657-0.331h6.577c0.226,0,0.41,0.183,0.41,0.414v18.479c0,0.229,0.186,0.414,0.414,0.414h14.856
	c0.231,0,0.416-0.185,0.416-0.414V0.472c0-0.224-0.185-0.409-0.416-0.409H48.669L48.669,0.063z"/>
<path fill-rule="evenodd" clip-rule="evenodd" fill="#C62032" d="M51.196,17.621c0,1.165,0.125,2.259,0.333,3.278h21.326
	l2.803-4.411H51.245C51.213,16.854,51.196,17.235,51.196,17.621L51.196,17.621z"/>
<path fill-rule="evenodd" clip-rule="evenodd" fill="#C62032" d="M51.947,13.235c-0.287,0.818-0.519,1.72-0.647,2.7h24.712
	l1.715-2.7H51.947L51.947,13.235z"/>
<path fill-rule="evenodd" clip-rule="evenodd" fill="#FFFFFF" d="M0.024,32.618c0-0.224,0.184-0.413,0.411-0.413h117.101
	c0.229,0,0.414,0.189,0.414,0.413v10.967c0,0.23-0.185,0.415-0.414,0.415H0.435c-0.228,0-0.411-0.185-0.411-0.415V32.618
	L0.024,32.618z"/>
<polygon fill-rule="evenodd" clip-rule="evenodd" fill="#0b2265" points="10.923,35.854 9.151,35.854 9.151,41.923 7.979,41.923 
	7.979,35.854 6.199,35.854 6.199,34.878 11.076,34.878 10.923,35.854 "/>
<path fill-rule="evenodd" clip-rule="evenodd" fill="#0b2265" d="M19.231,39.091c-0.314-1.061-0.603-2.078-0.833-3.051
	c-0.298,1.057-0.605,2.073-0.895,3.051H19.231L19.231,39.091z M20.065,41.923l-0.572-1.853h-2.278l-0.569,1.853h-1.215l2.314-7.045
	h1.352l2.251,7.045H20.065L20.065,41.923z"/>
<path fill-rule="evenodd" clip-rule="evenodd" fill="#0b2265" d="M29.757,42.025c-0.938,0-1.679-0.357-2.228-1.02
	c-0.528-0.639-0.807-1.497-0.807-2.483c0-0.841,0.155-1.537,0.47-2.13c0.53-1.008,1.496-1.618,2.596-1.618
	c0.686,0,1.334,0.202,1.753,0.55L31,36.088c-0.375-0.278-0.762-0.397-1.201-0.397c-0.601,0-1.102,0.306-1.403,0.846
	c-0.246,0.427-0.369,1.019-0.369,1.846c0,0.843,0.091,1.334,0.276,1.731c0.304,0.67,0.884,0.993,1.568,0.993
	c0.5,0,0.869-0.129,1.262-0.445l0.55,0.741C31.133,41.822,30.512,42.025,29.757,42.025L29.757,42.025z"/>
<path fill-rule="evenodd" clip-rule="evenodd" fill="#0b2265" d="M42.751,35.589l-0.326,0.083c-0.133,0.029-0.287,0.061-0.398,0.175
	c-0.099,0.099-0.171,0.292-0.213,0.454l-0.183,0.733c-0.069,0.296-0.13,0.592-0.417,0.855c-0.132,0.125-0.307,0.224-0.499,0.285
	v0.021c0.141,0.052,0.295,0.124,0.442,0.254c0.258,0.244,0.361,0.502,0.445,0.81l0.313,1.129c0.071,0.262,0.143,0.414,0.234,0.496
	c0.083,0.083,0.275,0.174,0.428,0.214l0.307,0.09l-0.216,0.829l-0.386-0.044c-0.337-0.03-0.806-0.092-1.121-0.393
	c-0.265-0.27-0.317-0.621-0.375-0.919l-0.235-1.083c-0.052-0.21-0.132-0.515-0.326-0.689c-0.213-0.195-0.5-0.215-0.693-0.215H38.86
	v3.249h-1.167v-7.045h1.167v2.841h0.776c0.223,0,0.499-0.021,0.713-0.225c0.18-0.184,0.23-0.46,0.28-0.661l0.196-0.857
	c0.051-0.232,0.135-0.572,0.376-0.801c0.238-0.237,0.5-0.267,0.906-0.328l0.417-0.062L42.751,35.589L42.751,35.589z"/>
<path fill-rule="evenodd" clip-rule="evenodd" fill="#0b2265" d="M51.245,35.672c-1.215,0-1.663,0.958-1.663,2.638
	c0,1.812,0.458,2.82,1.691,2.82c1.049,0,1.588-0.774,1.588-2.672C52.861,36.748,52.505,35.672,51.245,35.672L51.245,35.672z
	 M51.273,42.025c-2.006,0-2.994-1.549-2.994-3.635c0-2.311,1.18-3.616,2.944-3.616c1.985,0,2.941,1.577,2.941,3.625
	C54.164,40.601,53.104,42.025,51.273,42.025L51.273,42.025z"/>
<path fill-rule="evenodd" clip-rule="evenodd" fill="#0b2265" d="M66.107,41.923l-0.326-4.368c-0.028-0.448-0.051-1.008-0.051-1.221
	c-0.05,0.231-0.141,0.679-0.272,1.129l-1.285,4.46h-0.997l-1.173-4.267c-0.132-0.467-0.266-1.1-0.308-1.335
	c0,0.235-0.037,0.912-0.065,1.344l-0.311,4.258h-1.148l0.644-7.045h1.559l1.078,3.992c0.16,0.589,0.223,0.985,0.261,1.2
	c0.034-0.215,0.126-0.694,0.26-1.182l1.107-4.011h1.558l0.624,7.045H66.107L66.107,41.923z"/>
<path fill-rule="evenodd" clip-rule="evenodd" fill="#0b2265" d="M75.739,40.961c0.53,0,0.837-0.154,0.996-0.312
	c0.271-0.253,0.309-0.612,0.309-0.843c0-0.438-0.154-0.693-0.309-0.837c-0.272-0.265-0.68-0.307-0.996-0.307h-0.997v2.298H75.739
	L75.739,40.961z M77.806,34.878l-0.15,0.956h-2.913v1.874h0.975c0.53,0,1.43,0,2.06,0.611c0.496,0.489,0.571,1.148,0.571,1.55
	c0,0.394-0.063,0.955-0.499,1.399c-0.583,0.605-1.498,0.654-2.179,0.654h-2.101v-7.045H77.806L77.806,34.878z"/>
<path fill-rule="evenodd" clip-rule="evenodd" fill="#0b2265" d="M87.521,39.091c-0.319-1.061-0.602-2.078-0.834-3.051
	c-0.298,1.057-0.602,2.073-0.899,3.051H87.521L87.521,39.091z M88.353,41.923l-0.57-1.853h-2.279l-0.57,1.853h-1.211l2.312-7.045
	h1.354l2.251,7.045H88.353L88.353,41.923z"/>
<polygon fill-rule="evenodd" clip-rule="evenodd" fill="#0b2265" points="98.894,41.923 98.894,38.663 96.491,38.663 96.491,41.923 
	95.319,41.923 95.319,34.878 96.491,34.878 96.491,37.708 98.894,37.708 98.894,34.878 100.063,34.878 100.063,41.923 
	98.894,41.923 "/>
<path fill-rule="evenodd" clip-rule="evenodd" fill="#0b2265" d="M111.643,35.589l-0.33,0.083c-0.131,0.029-0.282,0.061-0.392,0.175
	c-0.107,0.099-0.177,0.292-0.217,0.454l-0.185,0.733c-0.069,0.296-0.132,0.592-0.42,0.855c-0.129,0.125-0.301,0.224-0.496,0.285
	v0.021c0.145,0.052,0.295,0.124,0.442,0.254c0.263,0.244,0.364,0.502,0.445,0.81l0.313,1.129c0.072,0.262,0.142,0.414,0.235,0.496
	c0.081,0.083,0.272,0.174,0.43,0.214l0.304,0.09l-0.216,0.829l-0.386-0.044c-0.335-0.03-0.806-0.092-1.12-0.393
	c-0.267-0.27-0.315-0.621-0.379-0.919l-0.231-1.083c-0.054-0.21-0.132-0.515-0.327-0.689c-0.213-0.195-0.498-0.215-0.692-0.215
	h-0.674v3.249h-1.17v-7.045h1.17v2.841h0.774c0.226,0,0.501-0.021,0.715-0.225c0.182-0.184,0.235-0.46,0.282-0.661l0.197-0.857
	c0.05-0.232,0.132-0.572,0.377-0.801c0.234-0.237,0.498-0.267,0.902-0.328l0.42-0.062L111.643,35.589L111.643,35.589z"/>
</svg>
